<?xml version="1.0" encoding="UTF-8" ?>
<svg
   viewBox="0 0 103.03555 30.304579"
   version="1.1"
   id="svg1"
   xmlns:xlink="http://www.w3.org/1999/xlink"
   xmlns="http://www.w3.org/2000/svg"
   xmlns:svg="http://www.w3.org/2000/svg">
  <defs
     id="defs1">
    <linearGradient
       xlink:href="#linearGradient3"
       id="linearGradient4"
       x1="12.078999"
       y1="7.5446582"
       x2="17.970709"
       y2="5.0703521"
       gradientUnits="userSpaceOnUse"
       gradientTransform="translate(11.581111,6.5301994)" />
    <linearGradient
       id="linearGradient3">
      <stop
         style="stop-color:#ff3535;stop-opacity:1;"
         offset="0"
         id="stop3" />
      <stop
         style="stop-color:#ff8b35;stop-opacity:1;"
         offset="1"
         id="stop4" />
    </linearGradient>
  </defs>
  <rect
     style="fill:#0f172a;stroke-width:52.8135;stroke-linecap:round;stroke-linejoin:round;stroke-opacity:0.980392;fill-opacity:1"
     id="rect4"
     width="103.03555"
     height="30.304579"
     x="-6.1767579e-08"
     y="-2.421875e-06" />
  <path
     style="font-size:14.0222px;font-family:Onest;-inkscape-font-specification:'Onest, @wght=700';font-variation-settings:'wght' 700;fill:#f9f9f9;stroke-width:81.247;stroke-linecap:round;stroke-linejoin:round;stroke-opacity:0.980392"
     d="m 33.346499,18.8612 v -7.3897 h 1.766797 l 0.168266,0.82731 q 0.280444,-0.39262 0.616977,-0.58893 0.350555,-0.21034 0.70111,-0.28045 0.350555,-0.0701 0.645021,-0.0701 0.659044,0 1.163843,0.2524 0.504799,0.2524 0.813288,0.81329 0.294466,-0.40664 0.645021,-0.631 0.350555,-0.23838 0.743176,-0.33653 0.392622,-0.0982 0.799266,-0.0982 0.855354,0 1.374175,0.36458 0.532844,0.35055 0.771221,0.98155 0.2524,0.631 0.2524,1.47233 v 4.68342 h -1.963108 v -4.16459 q 0,-0.2524 -0.02804,-0.51883 -0.02804,-0.26642 -0.140222,-0.50479 -0.09815,-0.23838 -0.308488,-0.39263 -0.196311,-0.15424 -0.560888,-0.15424 -0.350555,0 -0.588932,0.15424 -0.238378,0.15425 -0.3786,0.42067 -0.140222,0.2524 -0.210333,0.56089 -0.05609,0.29446 -0.05609,0.60295 v 3.99633 h -1.963108 v -4.17862 q 0,-0.23837 -0.02804,-0.5048 -0.02804,-0.26642 -0.1262,-0.50479 -0.09815,-0.23838 -0.32251,-0.39263 -0.210333,-0.15424 -0.588933,-0.15424 -0.518821,0 -0.799265,0.30849 -0.266422,0.29446 -0.350555,0.71513 -0.08413,0.40664 -0.08413,0.7572 v 3.95426 z m 14.288611,0.0982 q -0.504799,0 -0.981554,-0.1262 -0.462732,-0.14022 -0.827309,-0.42066 -0.364578,-0.28045 -0.574911,-0.70111 -0.210333,-0.42067 -0.210333,-0.98156 0,-0.75719 0.308489,-1.2059 0.308488,-0.46274 0.82731,-0.70111 0.518821,-0.23838 1.191887,-0.32252 0.687087,-0.0841 1.416242,-0.0841 h 1.065687 q 0,-0.40664 -0.154244,-0.71513 -0.140222,-0.32251 -0.434688,-0.49078 -0.294467,-0.18229 -0.757199,-0.18229 -0.294466,0 -0.57491,0.0841 -0.266422,0.0701 -0.448711,0.21033 -0.182288,0.14022 -0.238377,0.36458 h -1.991153 q 0.08413,-0.61698 0.392622,-1.05167 0.308488,-0.44871 0.771221,-0.72915 0.462733,-0.28045 1.009598,-0.40665 0.560888,-0.14022 1.149821,-0.14022 1.612553,0 2.383774,0.92547 0.771221,0.91144 0.771221,2.5941 v 3.98231 h -1.766797 l -0.02804,-0.95351 q -0.350555,0.49078 -0.799265,0.71513 -0.434688,0.22436 -0.841332,0.28045 -0.406644,0.0561 -0.659044,0.0561 z m 0.448711,-1.55646 q 0.490777,0 0.897421,-0.19631 0.406643,-0.19631 0.645021,-0.53284 0.238377,-0.33654 0.238377,-0.7572 V 15.7343 h -1.346131 q -0.294466,0 -0.57491,0.028 -0.266422,0.0281 -0.490777,0.11218 -0.210333,0.0701 -0.336533,0.23838 -0.1262,0.16826 -0.1262,0.44871 0,0.28044 0.140222,0.47675 0.154244,0.18229 0.406644,0.28045 0.2524,0.0841 0.546866,0.0841 z m 5.174204,1.45831 v -7.3897 h 1.963108 v 7.3897 z m 0.981554,-8.13288 q -0.546866,0 -0.883399,-0.32251 -0.336533,-0.33653 -0.336533,-0.8553504 0,-0.54687 0.350555,-0.8834 0.350555,-0.33653 0.883399,-0.33653 0.490777,0 0.841332,0.33653 0.364577,0.32251 0.364577,0.86938 0,0.5328404 -0.350555,0.8693704 -0.336533,0.32251 -0.869376,0.32251 z"
     id="path7-1" />
  <path
     style="font-size:14.0222px;font-family:Onest;-inkscape-font-specification:'Onest, @wght=700';font-variation-settings:'wght' 700;fill:#f9f9f9;stroke-width:81.247;stroke-linecap:round;stroke-linejoin:round;stroke-opacity:0.980392"
     d="M 56.777588,18.8612 V 8.9334796 h 1.963108 V 18.8612 Z"
     id="path8-7" />
  <path
     d="m 59.820397,18.8612 v -1.65462 l 2.748351,-2.28562 q 0.294466,-0.2524 0.673066,-0.56089 0.392621,-0.32251 0.743176,-0.68708 0.364578,-0.36458 0.588933,-0.77123 0.238377,-0.40664 0.238377,-0.84133 0,-0.60295 -0.378599,-0.98155 -0.364577,-0.3786 -1.07971,-0.3786 -0.673065,0 -1.065687,0.30849 -0.378599,0.29446 -0.476754,0.7572 h -1.935064 q 0.08413,-0.99558 0.588932,-1.6406 0.518822,-0.6590404 1.304065,-0.9815604 0.785243,-0.32251 1.654619,-0.32251 0.939488,0 1.710709,0.35056 0.771221,0.35055 1.219931,1.0236204 0.448711,0.65904 0.448711,1.6406 0,0.84133 -0.322511,1.52842 -0.308488,0.67306 -0.855354,1.26199 -0.546866,0.57491 -1.233954,1.10776 l -1.570486,1.27602 h 3.968282 v 1.85093 z"
     id="path9-2"
     style="font-size:14.0222px;font-family:Onest;-inkscape-font-specification:'Onest, @wght=700';font-variation-settings:'wght' 700;fill:#ff3535;stroke-width:81.247;stroke-linecap:round;stroke-linejoin:round;stroke-opacity:0.980392" />
  <path
     style="font-size:14.0222px;font-family:Onest;-inkscape-font-specification:'Onest, @wght=700';font-variation-settings:'wght' 700;fill:#f9f9f9;stroke-width:81.247;stroke-linecap:round;stroke-linejoin:round;stroke-opacity:0.980392"
     d="m 71.206436,18.95935 q -1.121776,0 -1.864953,-0.50479 -0.729154,-0.51883 -1.093731,-1.37418 -0.364578,-0.86938 -0.364578,-1.92104 0,-1.10776 0.392622,-1.96311 0.392622,-0.86938 1.163843,-1.36015 0.771221,-0.49078 1.921041,-0.49078 0.392622,0 0.771221,0.0982 0.392622,0.0841 0.715132,0.26642 0.336533,0.16826 0.57491,0.44871 V 8.9335196 h 1.963108 V 18.86124 h -1.907019 l -0.02804,-0.82731 q -0.2524,0.32251 -0.616977,0.53284 -0.350555,0.19631 -0.757199,0.29447 -0.406644,0.0982 -0.869376,0.0982 z m 0.392621,-1.76679 q 0.630999,0 1.023621,-0.29447 0.406644,-0.29447 0.602955,-0.7572 0.19631,-0.46273 0.19631,-0.99557 0,-0.54687 -0.19631,-0.99558 -0.182289,-0.46273 -0.588933,-0.72915 -0.392621,-0.28045 -1.037643,-0.28045 -0.645021,0 -1.037642,0.29447 -0.392622,0.29446 -0.560888,0.77122 -0.154245,0.46273 -0.154245,0.99557 0,0.39263 0.08413,0.7572 0.09816,0.35056 0.308488,0.631 0.210333,0.28045 0.546866,0.44871 0.336533,0.15425 0.813287,0.15425 z m 5.328436,1.66864 v -7.3897 h 1.836908 l 0.09816,0.85535 q 0.308488,-0.3786 0.70111,-0.58893 0.40664,-0.22435 0.81329,-0.30849 0.42066,-0.0841 0.7572,-0.0841 1.06568,0 1.65462,0.46273 0.60295,0.46274 0.85535,1.24798 0.26642,0.77122 0.26642,1.72473 v 4.08046 h -1.96311 v -3.82806 q 0,-0.33653 -0.0561,-0.67307 -0.0561,-0.33653 -0.21033,-0.61697 -0.14022,-0.28045 -0.40664,-0.44871 -0.26642,-0.16827 -0.70111,-0.16827 -0.56089,0 -0.93949,0.28044 -0.378599,0.28045 -0.560888,0.7572 -0.182289,0.47676 -0.182289,1.05167 v 3.64577 z"
     id="path10-3" />
  <path
     style="font-size:14.0222px;font-family:Onest;-inkscape-font-specification:'Onest, @wght=700';font-variation-settings:'wght' 700;fill:#f9f9f9;stroke-width:81.247;stroke-linecap:round;stroke-linejoin:round;stroke-opacity:0.980392"
     d="m 88.299491,18.95935 q -0.51882,0 -1.06569,-0.11217 -0.54686,-0.11218 -1.0096,-0.3786 -0.46273,-0.28045 -0.78524,-0.74318 -0.32251,-0.47675 -0.42066,-1.17786 h 1.99115 q 0.0841,0.2524 0.29446,0.43468 0.22436,0.18229 0.5048,0.26643 0.29447,0.0841 0.58894,0.0841 0.19631,0 0.39262,-0.0281 0.19631,-0.028 0.36457,-0.11217 0.16827,-0.0841 0.26643,-0.21034 0.0982,-0.14022 0.0982,-0.35055 0,-0.22436 -0.14023,-0.35056 -0.14022,-0.1262 -0.39262,-0.19631 -0.2524,-0.0841 -0.57491,-0.15424 -0.57491,-0.1262 -1.23395,-0.28044 -0.65904,-0.15425 -1.1358,-0.44872 -0.19631,-0.14022 -0.35055,-0.30848 -0.15425,-0.16827 -0.2524,-0.3786 -0.0982,-0.21034 -0.15425,-0.43469 -0.0561,-0.23838 -0.0561,-0.5048 0,-0.60295 0.2524,-1.02362 0.26642,-0.43469 0.70111,-0.70111 0.43469,-0.26642 0.96753,-0.3786 0.53285,-0.1262 1.09373,-0.1262 0.7572,0 1.40222,0.2524 0.64503,0.23838 1.06569,0.7572 0.42067,0.5048 0.51882,1.31809 h -1.87897 q -0.0561,-0.30849 -0.3786,-0.49078 -0.32251,-0.19631 -0.79927,-0.19631 -0.16826,0 -0.36457,0.028 -0.18229,0.028 -0.33654,0.0982 -0.15424,0.0701 -0.2524,0.19631 -0.0982,0.11218 -0.0982,0.30849 0,0.15424 0.0841,0.28044 0.0982,0.1262 0.26643,0.21033 0.18229,0.0841 0.43468,0.15425 0.47676,0.11218 0.95351,0.21033 0.49078,0.0841 0.86938,0.18229 0.46273,0.0982 0.84133,0.32251 0.39262,0.22435 0.631,0.61698 0.2524,0.3786 0.2524,0.99557 0,0.70111 -0.28044,1.16385 -0.28045,0.44871 -0.7572,0.71513 -0.46274,0.26642 -1.02362,0.3786 -0.54687,0.11217 -1.09373,0.11217 z"
     id="path11-6" />
  <path
     d="m 19.352638,6.5301994 c -0.13484,0 -0.26926,0.0031 -0.402344,0.0098 -0.133084,0.0067 -0.265314,0.01807 -0.396485,0.03125 -0.13117,0.01318 -0.261527,0.0293 -0.390625,0.04883 -0.129097,0.01953 -0.255945,0.04263 -0.382812,0.06836 -0.126867,0.02572 -0.252476,0.05418 -0.376953,0.08594 -0.124477,0.03176 -0.249166,0.06588 -0.371094,0.103516 -0.121928,0.03763 -0.242107,0.07774 -0.361328,0.121094 -0.119222,0.04335 -0.23716,0.08976 -0.353516,0.138671 -0.116356,0.04891 -0.230417,0.09998 -0.343749,0.154297 -0.113332,0.05431 -0.225789,0.112319 -0.335938,0.171875 -0.110149,0.05956 -0.217411,0.120906 -0.324219,0.185547 -0.106807,0.06464 -0.213098,0.131605 -0.316406,0.201172 -0.103307,0.06957 -0.205038,0.142461 -0.304687,0.216797 -0.09965,0.07434 -0.197137,0.1515242 -0.292969,0.2304692 -0.09583,0.07895 -0.189394,0.158791 -0.28125,0.242187 -0.09186,0.0834 -0.18181,0.170123 -0.269531,0.257813 -0.08772,0.08769 -0.172431,0.177707 -0.25586,0.269531 -0.08343,0.09182 -0.165163,0.18545 -0.24414,0.28125 -0.07898,0.0958 -0.156102,0.193351 -0.230469,0.292969 -0.07437,0.09962 -0.147199,0.20141 -0.216797,0.304687 -0.0696,0.1032784 -0.136502,0.2076754 -0.201172,0.3144534 -0.06467,0.106779 -0.125962,0.216051 -0.185547,0.326172 -0.05958,0.110121 -0.117535,0.220679 -0.171875,0.333985 -0.05434,0.113305 -0.10536,0.229371 -0.154297,0.345703 -0.04894,0.116331 -0.0953,0.234316 -0.138671,0.353515 -0.04337,0.1192 -0.08344,0.23942 -0.121094,0.361328 -0.03765,0.121909 -0.07369,0.244681 -0.105469,0.369141 -0.03178,0.12446 -0.0602,0.250101 -0.08594,0.376953 -0.02574,0.126852 -0.04882,0.255679 -0.06836,0.384766 -0.01954,0.129087 -0.03564,0.259463 -0.04883,0.390625 -0.01319,0.131163 -0.02262,0.263404 -0.0293,0.396485 -0.0067,0.13308 -0.0098,0.265551 -0.0098,0.40039 v 1.703125 c 0,0.156827 0.0046,0.312374 0.01367,0.466797 0.009,0.154423 0.02128,0.307214 0.03906,0.458984 0.01778,0.151771 0.04011,0.302302 0.06641,0.451172 0.0263,0.148871 0.05723,0.297637 0.0918,0.44336 0.03457,0.145722 0.07265,0.289314 0.115235,0.43164 0.04258,0.142327 0.09028,0.283193 0.140625,0.421875 0.05034,0.138683 0.104253,0.275366 0.162109,0.410157 0.05786,0.13479 0.118476,0.267786 0.183594,0.398437 0.06512,0.130651 0.134902,0.258502 0.207031,0.384766 0.07213,0.126263 0.147674,0.249465 0.226562,0.371093 0.07889,0.121628 0.160696,0.240678 0.246094,0.357422 0.0854,0.116745 0.173968,0.232137 0.265625,0.34375 0.09166,0.111613 0.187492,0.219938 0.285156,0.326172 0.09766,0.106234 0.19736,0.20994 0.300782,0.310547 0.103421,0.100607 0.209432,0.198237 0.318359,0.292969 0.108927,0.09473 0.219802,0.186782 0.333984,0.27539 l 2.005859,0.01953 2.734376,0.02734 -0.900391,1.523438 c 0.15324,0.0181 0.309044,0.03329 0.464844,0.04297 0.1558,0.0097 0.312323,0.01367 0.470703,0.01367 h 2.90625 c 0.134839,0 0.269263,-0.0031 0.402344,-0.0098 0.13308,-0.0067 0.265321,-0.01611 0.396484,-0.0293 0.131163,-0.01319 0.261538,-0.02929 0.390625,-0.04883 0.129087,-0.01954 0.25596,-0.04262 0.382812,-0.06836 0.126853,-0.02574 0.252494,-0.05416 0.376954,-0.08594 0.124459,-0.03177 0.247231,-0.06781 0.36914,-0.105469 0.121909,-0.03765 0.244082,-0.07772 0.363281,-0.121094 0.1192,-0.04337 0.237184,-0.08974 0.353516,-0.138671 0.116332,-0.04894 0.230444,-0.09996 0.34375,-0.154297 0.113306,-0.05434 0.225816,-0.112291 0.335938,-0.171875 0.110121,-0.05958 0.21744,-0.120877 0.324218,-0.185547 0.106779,-0.06467 0.213129,-0.131574 0.316406,-0.201172 0.103278,-0.0696 0.203117,-0.14243 0.302735,-0.216797 0.09962,-0.07437 0.197168,-0.151492 0.292969,-0.230469 0.0958,-0.07898 0.191379,-0.158759 0.283203,-0.242187 0.09182,-0.08343 0.179889,-0.170091 0.267578,-0.257813 0.08769,-0.08772 0.174416,-0.177675 0.257812,-0.269531 0.0834,-0.09186 0.165196,-0.185418 0.244141,-0.28125 0.07895,-0.09583 0.15418,-0.19332 0.228516,-0.292969 0.07434,-0.09965 0.147229,-0.201379 0.216796,-0.304687 0.06957,-0.103308 0.136531,-0.207646 0.201172,-0.314453 0.06464,-0.106808 0.125991,-0.216023 0.185547,-0.326172 0.05956,-0.110149 0.117562,-0.222606 0.171875,-0.335938 0.05431,-0.113331 0.105385,-0.227394 0.154297,-0.34375 0.04891,-0.116356 0.09532,-0.234294 0.138672,-0.353515 0.04335,-0.119222 0.08346,-0.2394 0.121094,-0.361328 0.03763,-0.121929 0.07371,-0.246617 0.105468,-0.371094 0.03176,-0.124477 0.06021,-0.250087 0.08594,-0.376953 0.02572,-0.126867 0.04688,-0.253715 0.06641,-0.382813 0.01953,-0.129098 0.0376,-0.259454 0.05078,-0.390625 0.01318,-0.13117 0.02263,-0.2634 0.0293,-0.396484 0.0067,-0.133084 0.0098,-0.267504 0.0098,-0.402344 v -1.703125 c 0,-0.190236 -0.0063,-0.377794 -0.01953,-0.564453 -0.01326,-0.186611 -0.03264,-0.372002 -0.05863,-0.554639 -0.02599,-0.182639 -0.05935,-0.362842 -0.09766,-0.541016 -0.03831,-0.178174 -0.08262,-0.354077 -0.132813,-0.527344 -0.05019,-0.173267 -0.106341,-0.343802 -0.167969,-0.511719 -0.06163,-0.167916 -0.128557,-0.333971 -0.201171,-0.496094 -0.07261,-0.162123 -0.151219,-0.320676 -0.234375,-0.476562 -0.08316,-0.155886 -0.17042,-0.307825 -0.263672,-0.457031 -0.09325,-0.149206 -0.19202,-0.2954184 -0.294922,-0.4375004 -0.102902,-0.142083 -0.210159,-0.2815 -0.322266,-0.416016 -0.112106,-0.134516 -0.228745,-0.264118 -0.349609,-0.390625 -0.120865,-0.126507 -0.245824,-0.249134 -0.375,-0.367188 -0.129177,-0.118053 -0.263348,-0.232639 -0.400391,-0.341796 -0.137043,-0.1091582 -0.277412,-0.2126822 -0.421875,-0.3125002 -0.144463,-0.09982 -0.291922,-0.195121 -0.443359,-0.285157 -0.151438,-0.09004 -0.306878,-0.174096 -0.464844,-0.253906 l -1.52539,0.355469 -2.66211,0.6250002 0.548828,-1.8164062 z"
     style="fill:url(#linearGradient4);stroke-width:3.366;stroke-linecap:round;stroke-linejoin:round"
     id="path2-9" />
  <path
     d="m 16.563634,11.52267 c -0.06677,0 -0.131144,0.0096 -0.192706,0.02562 l 4.136538,4.136539 c 0.168677,0.168677 0.425489,0.168677 0.594158,0 L 25.23817,11.54829 c -0.06156,-0.01612 -0.125928,-0.02562 -0.192706,-0.02562 z m -0.698757,0.46786 c -0.03637,0.08861 -0.05642,0.185752 -0.05642,0.287752 v 5.74801 c 0,0.418493 0.336688,0.755613 0.755179,0.755613 h 8.48183 c 0.418485,0 0.755613,-0.33712 0.755613,-0.755613 v -5.74801 c 0,-0.102033 -0.02049,-0.199121 -0.05686,-0.287752 l -4.168216,4.168656 c -0.423146,0.423112 -1.119313,0.423146 -1.542467,0 z"
     style="fill:#ffffff;fill-opacity:1;stroke-width:2.82696;stroke-linecap:round;stroke-linejoin:round;stroke-dasharray:none"
     id="path1-6-5" />
</svg>
