<?xml version="1.0" encoding="UTF-8"?>

<svg
   viewBox="0 0 103.03555 30.304579"
   version="1.1"
   id="svg1"
   xmlns="http://www.w3.org/2000/svg"
   xmlns:svg="http://www.w3.org/2000/svg">
  <defs
     id="defs1" />
  <g
     id="layer1"
     transform="translate(-55.760418,-134.24927)">
    <rect
       style="fill:#000000;stroke-width:52.8135;stroke-linecap:round;stroke-linejoin:round;stroke-opacity:0.980392"
       id="rect4"
       width="103.03555"
       height="30.304579"
       x="55.760418"
       y="134.24927" />
    <path
       style="fill:#ff3535;fill-opacity:1;stroke-width:0.16598;stroke-linecap:round;stroke-linejoin:round"
       d="m 79.65787,137.50503 -0.69401,2.29495 c -0.0743,-0.002 -0.14799,-0.006 -0.22273,-0.006 h -2.90628 c -4.921937,0 -8.902297,3.97881 -8.902297,8.90074 v 1.70274 c 0,3.19554 1.67835,5.99322 4.202327,7.56337 l 0.539502,0.95549 1.344108,2.38177 1.26142,-2.13579 c 0.5051,0.0888 1.02413,0.13746 1.55494,0.13746 h 2.90628 c 4.92194,0 8.90024,-3.98036 8.90024,-8.9023 v -1.70274 c 0,-3.51752 -2.0327,-6.55198 -4.98885,-7.99796 l -1.12344,-1.19786 z m -3.82302,3.42046 h 2.78846 l -0.5488,1.8154 2.66289,-0.62374 1.52548,-0.35708 c 2.52746,1.27696 4.24781,3.89119 4.24781,6.93497 v 1.70274 c 0,4.31487 -3.45469,7.77162 -7.76956,7.77162 h -2.90628 c -0.31676,0 -0.62834,-0.0206 -0.93482,-0.0568 l 0.89968,-1.52394 -2.73471,-0.0269 -2.004534,-0.0196 c -1.826923,-1.41774 -2.997232,-3.63509 -2.997233,-6.14433 v -1.70274 c 0,-4.31486 3.456748,-7.76955 7.771617,-7.76955 z m -3.30832,4.34599 c -0.0795,0 -0.283012,-0.0231 -0.22945,0.0305 l 4.92528,4.92528 c 0.20084,0.20084 0.50662,0.20084 0.70745,0 l 4.92529,-4.92528 c 0,0 -0.14994,-0.0305 -0.22945,-0.0305 z m -0.831994,0.55707 c -0.0433,0.1055 -0.06718,0.22117 -0.06718,0.34262 v 6.84402 c 0,0.49829 0.400887,0.89969 0.899174,0.89969 h 10.09912 c 0.49828,0 0.89969,-0.4014 0.89969,-0.89969 v -6.84402 c 0,-0.12149 -0.0244,-0.23709 -0.0677,-0.34262 l -4.963,4.96352 c -0.50383,0.50379 -1.33274,0.50383 -1.83658,0 z"
       id="rect2-4-3" />
    <g
       id="text1"
       style="font-size:14.0222px;font-family:Onest;-inkscape-font-specification:'Onest, @wght=700';font-variation-settings:'wght' 700;fill:#ff3535;stroke-width:81.247;stroke-linecap:round;stroke-linejoin:round;stroke-opacity:0.980392"
       aria-label="mail2dns"
       transform="translate(52.909639,-4.840803)">
      <path
         style="fill:#ffffff"
         d="m 36.606224,158.4003 v -7.3897 h 1.766797 l 0.168266,0.82731 q 0.280444,-0.39262 0.616977,-0.58893 0.350555,-0.21034 0.70111,-0.28045 0.350555,-0.0701 0.645021,-0.0701 0.659044,0 1.163843,0.2524 0.504799,0.2524 0.813288,0.81329 0.294466,-0.40664 0.645021,-0.631 0.350555,-0.23838 0.743176,-0.33653 0.392622,-0.0982 0.799266,-0.0982 0.855354,0 1.374175,0.36458 0.532844,0.35055 0.771221,0.98155 0.2524,0.631 0.2524,1.47233 v 4.68342 h -1.963108 v -4.16459 q 0,-0.2524 -0.02804,-0.51883 -0.02804,-0.26642 -0.140222,-0.50479 -0.09815,-0.23838 -0.308488,-0.39263 -0.196311,-0.15424 -0.560888,-0.15424 -0.350555,0 -0.588932,0.15424 -0.238378,0.15425 -0.3786,0.42067 -0.140222,0.2524 -0.210333,0.56089 -0.05609,0.29446 -0.05609,0.60295 v 3.99633 h -1.963108 v -4.17862 q 0,-0.23837 -0.02804,-0.5048 -0.02804,-0.26642 -0.1262,-0.50479 -0.09815,-0.23838 -0.32251,-0.39263 -0.210333,-0.15424 -0.588933,-0.15424 -0.518821,0 -0.799265,0.30849 -0.266422,0.29446 -0.350555,0.71513 -0.08413,0.40664 -0.08413,0.7572 v 3.95426 z m 14.288611,0.0982 q -0.504799,0 -0.981554,-0.1262 -0.462732,-0.14022 -0.827309,-0.42066 -0.364578,-0.28045 -0.574911,-0.70111 -0.210333,-0.42067 -0.210333,-0.98156 0,-0.75719 0.308489,-1.2059 0.308488,-0.46274 0.82731,-0.70111 0.518821,-0.23838 1.191887,-0.32252 0.687087,-0.0841 1.416242,-0.0841 h 1.065687 q 0,-0.40664 -0.154244,-0.71513 -0.140222,-0.32251 -0.434688,-0.49078 -0.294467,-0.18229 -0.757199,-0.18229 -0.294466,0 -0.57491,0.0841 -0.266422,0.0701 -0.448711,0.21033 -0.182288,0.14022 -0.238377,0.36458 h -1.991153 q 0.08413,-0.61698 0.392622,-1.05167 0.308488,-0.44871 0.771221,-0.72915 0.462733,-0.28045 1.009598,-0.40665 0.560888,-0.14022 1.149821,-0.14022 1.612553,0 2.383774,0.92547 0.771221,0.91144 0.771221,2.5941 v 3.98231 h -1.766797 l -0.02804,-0.95351 q -0.350555,0.49078 -0.799265,0.71513 -0.434688,0.22436 -0.841332,0.28045 -0.406644,0.0561 -0.659044,0.0561 z m 0.448711,-1.55646 q 0.490777,0 0.897421,-0.19631 0.406643,-0.19631 0.645021,-0.53284 0.238377,-0.33654 0.238377,-0.7572 v -0.18229 h -1.346131 q -0.294466,0 -0.57491,0.028 -0.266422,0.0281 -0.490777,0.11218 -0.210333,0.0701 -0.336533,0.23838 -0.1262,0.16826 -0.1262,0.44871 0,0.28044 0.140222,0.47675 0.154244,0.18229 0.406644,0.28045 0.2524,0.0841 0.546866,0.0841 z m 5.174204,1.45831 v -7.3897 h 1.963108 v 7.3897 z m 0.981554,-8.13288 q -0.546866,0 -0.883399,-0.32251 -0.336533,-0.33653 -0.336533,-0.85535 0,-0.54687 0.350555,-0.8834 0.350555,-0.33653 0.883399,-0.33653 0.490777,0 0.841332,0.33653 0.364577,0.32251 0.364577,0.86938 0,0.53284 -0.350555,0.86937 -0.336533,0.32251 -0.869376,0.32251 z"
         id="path7" />
      <path
         style="fill:#ffffff"
         d="m 60.037313,158.4003 v -9.92772 h 1.963108 v 9.92772 z"
         id="path8" />
      <path
         d="m 63.080122,158.4003 v -1.65462 l 2.748351,-2.28562 q 0.294466,-0.2524 0.673066,-0.56089 0.392621,-0.32251 0.743176,-0.68708 0.364578,-0.36458 0.588933,-0.77123 0.238377,-0.40664 0.238377,-0.84133 0,-0.60295 -0.378599,-0.98155 -0.364577,-0.3786 -1.07971,-0.3786 -0.673065,0 -1.065687,0.30849 -0.378599,0.29446 -0.476754,0.7572 h -1.935064 q 0.08413,-0.99558 0.588932,-1.6406 0.518822,-0.65904 1.304065,-0.98156 0.785243,-0.32251 1.654619,-0.32251 0.939488,0 1.710709,0.35056 0.771221,0.35055 1.219931,1.02362 0.448711,0.65904 0.448711,1.6406 0,0.84133 -0.322511,1.52842 -0.308488,0.67306 -0.855354,1.26199 -0.546866,0.57491 -1.233954,1.10776 l -1.570486,1.27602 h 3.968282 v 1.85093 z"
         id="path9" />
      <path
         style="fill:#ffffff;fill-opacity:1"
         d="m 74.466161,158.49845 q -1.121776,0 -1.864953,-0.50479 -0.729154,-0.51883 -1.093731,-1.37418 -0.364578,-0.86938 -0.364578,-1.92104 0,-1.10776 0.392622,-1.96311 0.392622,-0.86938 1.163843,-1.36015 0.771221,-0.49078 1.921041,-0.49078 0.392622,0 0.771221,0.0982 0.392622,0.0841 0.715132,0.26642 0.336533,0.16826 0.57491,0.44871 v -3.22511 h 1.963108 v 9.92772 h -1.907019 l -0.02804,-0.82731 q -0.2524,0.32251 -0.616977,0.53284 -0.350555,0.19631 -0.757199,0.29447 -0.406644,0.0982 -0.869376,0.0982 z m 0.392621,-1.76679 q 0.630999,0 1.023621,-0.29447 0.406644,-0.29447 0.602955,-0.7572 0.19631,-0.46273 0.19631,-0.99557 0,-0.54687 -0.19631,-0.99558 -0.182289,-0.46273 -0.588933,-0.72915 -0.392621,-0.28045 -1.037643,-0.28045 -0.645021,0 -1.037642,0.29447 -0.392622,0.29446 -0.560888,0.77122 -0.154245,0.46273 -0.154245,0.99557 0,0.39263 0.08413,0.7572 0.09816,0.35056 0.308488,0.631 0.210333,0.28045 0.546866,0.44871 0.336533,0.15425 0.813287,0.15425 z m 5.328436,1.66864 v -7.3897 h 1.836908 l 0.09816,0.85535 q 0.308488,-0.3786 0.70111,-0.58893 0.406644,-0.22435 0.813288,-0.30849 0.420666,-0.0841 0.757198,-0.0841 1.065688,0 1.65462,0.46273 0.602955,0.46274 0.855354,1.24798 0.266422,0.77122 0.266422,1.72473 v 4.08046 H 85.20717 v -3.82806 q 0,-0.33653 -0.05609,-0.67307 -0.05609,-0.33653 -0.210333,-0.61697 -0.140222,-0.28045 -0.406644,-0.44871 -0.266421,-0.16827 -0.70111,-0.16827 -0.560888,0 -0.939487,0.28044 -0.378599,0.28045 -0.560888,0.7572 -0.182289,0.47676 -0.182289,1.05167 v 3.64577 z"
         id="path10" />
      <path
         style="fill:#ffffff;fill-opacity:1"
         d="m 91.559216,158.49845 q -0.518822,0 -1.065687,-0.11217 -0.546866,-0.11218 -1.009599,-0.3786 -0.462732,-0.28045 -0.785243,-0.74318 -0.322511,-0.47675 -0.420666,-1.17786 h 1.991152 q 0.08413,0.2524 0.294467,0.43468 0.224355,0.18229 0.504799,0.26643 0.294466,0.0841 0.588932,0.0841 0.196311,0 0.392622,-0.0281 0.196311,-0.028 0.364577,-0.11217 0.168266,-0.0841 0.266422,-0.21034 0.09815,-0.14022 0.09815,-0.35055 0,-0.22436 -0.140222,-0.35056 -0.140222,-0.1262 -0.392621,-0.19631 -0.2524,-0.0841 -0.574911,-0.15424 -0.57491,-0.1262 -1.233953,-0.28044 -0.659044,-0.15425 -1.135798,-0.44872 -0.196311,-0.14022 -0.350555,-0.30848 -0.154245,-0.16827 -0.2524,-0.3786 -0.09816,-0.21034 -0.154244,-0.43469 -0.05609,-0.23838 -0.05609,-0.5048 0,-0.60295 0.2524,-1.02362 0.266421,-0.43469 0.70111,-0.70111 0.434688,-0.26642 0.967531,-0.3786 0.532844,-0.1262 1.093732,-0.1262 0.757199,0 1.40222,0.2524 0.645021,0.23838 1.065687,0.7572 0.420666,0.5048 0.518822,1.31809 h -1.878975 q -0.05609,-0.30849 -0.3786,-0.49078 -0.32251,-0.19631 -0.799265,-0.19631 -0.168266,0 -0.364577,0.028 -0.182289,0.028 -0.336533,0.0982 -0.154244,0.0701 -0.2524,0.19631 -0.09816,0.11218 -0.09816,0.30849 0,0.15424 0.08413,0.28044 0.09816,0.1262 0.266422,0.21033 0.182289,0.0841 0.434688,0.15425 0.476755,0.11218 0.95351,0.21033 0.490777,0.0841 0.869376,0.18229 0.462733,0.0982 0.841332,0.32251 0.392622,0.22435 0.630999,0.61698 0.2524,0.3786 0.2524,0.99557 0,0.70111 -0.280444,1.16385 -0.280444,0.44871 -0.757199,0.71513 -0.462733,0.26642 -1.023621,0.3786 -0.546865,0.11217 -1.093731,0.11217 z"
         id="path11" />
    </g>
  </g>
</svg>
